G04 #@! TF.FileFunction,Legend,Top*
%FSLAX46Y46*%
G04 Gerber Fmt 4.6, Leading zero omitted, Abs format (unit mm)*
G04 Created by KiCad (PCBNEW 4.0.2-stable) date Tuesday, July 03, 2018 'PMt' 03:02:25 PM*
%MOMM*%
G01*
G04 APERTURE LIST*
%ADD10C,0.025400*%
%ADD11C,0.101600*%
%ADD12C,0.076200*%
%ADD13C,0.150000*%
%ADD14C,0.120000*%
G04 APERTURE END LIST*
D10*
D11*
X108331001Y-98171000D02*
G75*
G03X108331001Y-98171000I-795653J0D01*
G01*
D12*
X107242429Y-98337310D02*
X107242429Y-98071214D01*
X107218238Y-98022833D01*
X107169857Y-97998643D01*
X107073095Y-97998643D01*
X107024714Y-98022833D01*
X107242429Y-98313119D02*
X107194048Y-98337310D01*
X107073095Y-98337310D01*
X107024714Y-98313119D01*
X107000524Y-98264738D01*
X107000524Y-98216357D01*
X107024714Y-98167976D01*
X107073095Y-98143786D01*
X107194048Y-98143786D01*
X107242429Y-98119595D01*
X107460143Y-98313119D02*
X107508524Y-98337310D01*
X107605286Y-98337310D01*
X107653667Y-98313119D01*
X107677857Y-98264738D01*
X107677857Y-98240548D01*
X107653667Y-98192167D01*
X107605286Y-98167976D01*
X107532714Y-98167976D01*
X107484333Y-98143786D01*
X107460143Y-98095405D01*
X107460143Y-98071214D01*
X107484333Y-98022833D01*
X107532714Y-97998643D01*
X107605286Y-97998643D01*
X107653667Y-98022833D01*
X107895571Y-98337310D02*
X107895571Y-97829310D01*
X108113286Y-98337310D02*
X108113286Y-98071214D01*
X108089095Y-98022833D01*
X108040714Y-97998643D01*
X107968143Y-97998643D01*
X107919762Y-98022833D01*
X107895571Y-98047024D01*
X104369809Y-82410300D02*
X104430286Y-82440538D01*
X104521000Y-82440538D01*
X104611714Y-82410300D01*
X104672190Y-82349824D01*
X104702429Y-82289348D01*
X104732667Y-82168395D01*
X104732667Y-82077681D01*
X104702429Y-81956729D01*
X104672190Y-81896252D01*
X104611714Y-81835776D01*
X104521000Y-81805538D01*
X104460524Y-81805538D01*
X104369809Y-81835776D01*
X104339571Y-81866014D01*
X104339571Y-82077681D01*
X104460524Y-82077681D01*
X104067429Y-81805538D02*
X104067429Y-82440538D01*
X103704571Y-81805538D01*
X103704571Y-82440538D01*
X103402191Y-81805538D02*
X103402191Y-82440538D01*
X103251000Y-82440538D01*
X103160286Y-82410300D01*
X103099810Y-82349824D01*
X103069571Y-82289348D01*
X103039333Y-82168395D01*
X103039333Y-82077681D01*
X103069571Y-81956729D01*
X103099810Y-81896252D01*
X103160286Y-81835776D01*
X103251000Y-81805538D01*
X103402191Y-81805538D01*
X109958414Y-82439329D02*
X109755214Y-81829729D01*
X109552014Y-82439329D01*
X109261728Y-81829729D02*
X109319786Y-81858757D01*
X109348814Y-81887786D01*
X109377843Y-81945843D01*
X109377843Y-82120014D01*
X109348814Y-82178071D01*
X109319786Y-82207100D01*
X109261728Y-82236129D01*
X109174643Y-82236129D01*
X109116586Y-82207100D01*
X109087557Y-82178071D01*
X109058528Y-82120014D01*
X109058528Y-81945843D01*
X109087557Y-81887786D01*
X109116586Y-81858757D01*
X109174643Y-81829729D01*
X109261728Y-81829729D01*
X108536014Y-82236129D02*
X108536014Y-81829729D01*
X108797271Y-82236129D02*
X108797271Y-81916814D01*
X108768243Y-81858757D01*
X108710185Y-81829729D01*
X108623100Y-81829729D01*
X108565043Y-81858757D01*
X108536014Y-81887786D01*
X108332814Y-82236129D02*
X108100585Y-82236129D01*
X108245728Y-82439329D02*
X108245728Y-81916814D01*
X108216700Y-81858757D01*
X108158642Y-81829729D01*
X108100585Y-81829729D01*
X107535134Y-82047443D02*
X107051324Y-82047443D01*
X107293229Y-81805538D02*
X107293229Y-82289348D01*
X106839658Y-82440538D02*
X106627991Y-81805538D01*
X106416324Y-82440538D01*
X105932515Y-81835776D02*
X105992991Y-81805538D01*
X106113943Y-81805538D01*
X106174419Y-81835776D01*
X106204658Y-81866014D01*
X106234896Y-81926490D01*
X106234896Y-82107919D01*
X106204658Y-82168395D01*
X106174419Y-82198633D01*
X106113943Y-82228871D01*
X105992991Y-82228871D01*
X105932515Y-82198633D01*
X105388229Y-81835776D02*
X105448705Y-81805538D01*
X105569657Y-81805538D01*
X105630133Y-81835776D01*
X105660372Y-81866014D01*
X105690610Y-81926490D01*
X105690610Y-82107919D01*
X105660372Y-82168395D01*
X105630133Y-82198633D01*
X105569657Y-82228871D01*
X105448705Y-82228871D01*
X105388229Y-82198633D01*
D13*
X108716000Y-86962000D02*
X109216000Y-86962000D01*
X109216000Y-86012000D02*
X108716000Y-86012000D01*
X103501000Y-86012000D02*
X103001000Y-86012000D01*
X103001000Y-86962000D02*
X103501000Y-86962000D01*
D14*
X108560500Y-90717500D02*
X110260500Y-90717500D01*
X110260500Y-90717500D02*
X110260500Y-88167500D01*
X108560500Y-90717500D02*
X108560500Y-88167500D01*
D13*
X105922000Y-86962000D02*
X106422000Y-86962000D01*
X106422000Y-86012000D02*
X105922000Y-86012000D01*
X109216000Y-91346000D02*
X108716000Y-91346000D01*
X108716000Y-92296000D02*
X109216000Y-92296000D01*
X108716000Y-93566000D02*
X109216000Y-93566000D01*
X109216000Y-92616000D02*
X108716000Y-92616000D01*
X103374000Y-91346000D02*
X102874000Y-91346000D01*
X102874000Y-92296000D02*
X103374000Y-92296000D01*
X102874000Y-93566000D02*
X103374000Y-93566000D01*
X103374000Y-92616000D02*
X102874000Y-92616000D01*
X105922000Y-92296000D02*
X106422000Y-92296000D01*
X106422000Y-91346000D02*
X105922000Y-91346000D01*
X106422000Y-92616000D02*
X105922000Y-92616000D01*
X105922000Y-93566000D02*
X106422000Y-93566000D01*
X106808500Y-90806500D02*
X106808500Y-90631500D01*
X103458500Y-90806500D02*
X103458500Y-90556500D01*
X103458500Y-87456500D02*
X103458500Y-87706500D01*
X106808500Y-87456500D02*
X106808500Y-87706500D01*
X106808500Y-90806500D02*
X103458500Y-90806500D01*
X106808500Y-87456500D02*
X103458500Y-87456500D01*
X106808500Y-90631500D02*
X108058500Y-90631500D01*
X107442000Y-82994500D02*
X102362000Y-82994500D01*
X102362000Y-82994500D02*
X102362000Y-85534500D01*
X102362000Y-85534500D02*
X107442000Y-85534500D01*
X110262000Y-85814500D02*
X108712000Y-85814500D01*
X107442000Y-85534500D02*
X107442000Y-82994500D01*
X108712000Y-82714500D02*
X110262000Y-82714500D01*
X110262000Y-82714500D02*
X110262000Y-85814500D01*
X106172000Y-96850200D02*
X108648500Y-96850200D01*
X108712000Y-96850200D02*
X108712000Y-94310200D01*
X108712000Y-94310200D02*
X106172000Y-94310200D01*
X103352000Y-94030200D02*
X104902000Y-94030200D01*
X106172000Y-94310200D02*
X106172000Y-96850200D01*
X104902000Y-97130200D02*
X103352000Y-97130200D01*
X103352000Y-97130200D02*
X103352000Y-94030200D01*
M02*
