G04 #@! TF.FileFunction,Soldermask,Top*
%FSLAX46Y46*%
G04 Gerber Fmt 4.6, Leading zero omitted, Abs format (unit mm)*
G04 Created by KiCad (PCBNEW 4.0.2-stable) date Tuesday, July 03, 2018 'PMt' 03:02:25 PM*
%MOMM*%
G01*
G04 APERTURE LIST*
%ADD10C,0.025400*%
G04 APERTURE END LIST*
D10*
G36*
X109326715Y-98679677D02*
X109521893Y-98719741D01*
X109521896Y-98719742D01*
X109521895Y-98719742D01*
X109705572Y-98796953D01*
X109870756Y-98908370D01*
X109941450Y-98979560D01*
X110011153Y-99049751D01*
X110121415Y-99215709D01*
X110197343Y-99399923D01*
X110236044Y-99595376D01*
X110232866Y-99822955D01*
X110188723Y-100017251D01*
X110138790Y-100129400D01*
X110107682Y-100199272D01*
X110107681Y-100199273D01*
X109992828Y-100362088D01*
X109848539Y-100499493D01*
X109680308Y-100606255D01*
X109494545Y-100678308D01*
X109494542Y-100678308D01*
X109494541Y-100678309D01*
X109371777Y-100699955D01*
X109298324Y-100712907D01*
X109298323Y-100712907D01*
X109099122Y-100708735D01*
X109025572Y-100692564D01*
X108904520Y-100665949D01*
X108721936Y-100586180D01*
X108558324Y-100472467D01*
X108419915Y-100329140D01*
X108419914Y-100329139D01*
X108311980Y-100161658D01*
X108238632Y-99976402D01*
X108202664Y-99780431D01*
X108202664Y-99780428D01*
X108205446Y-99581200D01*
X108243977Y-99399925D01*
X108246871Y-99386308D01*
X108325364Y-99203170D01*
X108437931Y-99038769D01*
X108580291Y-98899360D01*
X108747014Y-98790261D01*
X108931753Y-98715621D01*
X109127472Y-98678286D01*
X109326715Y-98679677D01*
X109326715Y-98679677D01*
G37*
G36*
X107509917Y-94781693D02*
X107603104Y-94791487D01*
X107752477Y-94837726D01*
X107890025Y-94912098D01*
X108010508Y-95011770D01*
X108109336Y-95132946D01*
X108182746Y-95271009D01*
X108227941Y-95420702D01*
X108243200Y-95576323D01*
X108243200Y-95584077D01*
X108243122Y-95595263D01*
X108225692Y-95750656D01*
X108178411Y-95899703D01*
X108103081Y-96036729D01*
X108002570Y-96156513D01*
X107880708Y-96254493D01*
X107742135Y-96326937D01*
X107592130Y-96371086D01*
X107592122Y-96371087D01*
X107592121Y-96371087D01*
X107530043Y-96376736D01*
X107436407Y-96385257D01*
X107436404Y-96385257D01*
X107374083Y-96378707D01*
X107280896Y-96368913D01*
X107131523Y-96322674D01*
X106993975Y-96248302D01*
X106873492Y-96148630D01*
X106774664Y-96027454D01*
X106701254Y-95889391D01*
X106656059Y-95739698D01*
X106640800Y-95584077D01*
X106640800Y-95576323D01*
X106640878Y-95565137D01*
X106658308Y-95409744D01*
X106705589Y-95260697D01*
X106780919Y-95123671D01*
X106881430Y-95003887D01*
X107003292Y-94905907D01*
X107141865Y-94833463D01*
X107291870Y-94789314D01*
X107291878Y-94789313D01*
X107291879Y-94789313D01*
X107353957Y-94783664D01*
X107447594Y-94775143D01*
X107447596Y-94775143D01*
X107509917Y-94781693D01*
X107509917Y-94781693D01*
G37*
G36*
X105703200Y-96381400D02*
X104100800Y-96381400D01*
X104100800Y-94779000D01*
X105703200Y-94779000D01*
X105703200Y-96381400D01*
X105703200Y-96381400D01*
G37*
G36*
X107098200Y-93417200D02*
X106345800Y-93417200D01*
X106345800Y-92764800D01*
X107098200Y-92764800D01*
X107098200Y-93417200D01*
X107098200Y-93417200D01*
G37*
G36*
X105998200Y-93417200D02*
X105245800Y-93417200D01*
X105245800Y-92764800D01*
X105998200Y-92764800D01*
X105998200Y-93417200D01*
X105998200Y-93417200D01*
G37*
G36*
X102950200Y-93417200D02*
X102197800Y-93417200D01*
X102197800Y-92764800D01*
X102950200Y-92764800D01*
X102950200Y-93417200D01*
X102950200Y-93417200D01*
G37*
G36*
X104050200Y-93417200D02*
X103297800Y-93417200D01*
X103297800Y-92764800D01*
X104050200Y-92764800D01*
X104050200Y-93417200D01*
X104050200Y-93417200D01*
G37*
G36*
X108792200Y-93417200D02*
X108039800Y-93417200D01*
X108039800Y-92764800D01*
X108792200Y-92764800D01*
X108792200Y-93417200D01*
X108792200Y-93417200D01*
G37*
G36*
X109892200Y-93417200D02*
X109139800Y-93417200D01*
X109139800Y-92764800D01*
X109892200Y-92764800D01*
X109892200Y-93417200D01*
X109892200Y-93417200D01*
G37*
G36*
X108792200Y-92147200D02*
X108039800Y-92147200D01*
X108039800Y-91494800D01*
X108792200Y-91494800D01*
X108792200Y-92147200D01*
X108792200Y-92147200D01*
G37*
G36*
X109892200Y-92147200D02*
X109139800Y-92147200D01*
X109139800Y-91494800D01*
X109892200Y-91494800D01*
X109892200Y-92147200D01*
X109892200Y-92147200D01*
G37*
G36*
X102950200Y-92147200D02*
X102197800Y-92147200D01*
X102197800Y-91494800D01*
X102950200Y-91494800D01*
X102950200Y-92147200D01*
X102950200Y-92147200D01*
G37*
G36*
X104050200Y-92147200D02*
X103297800Y-92147200D01*
X103297800Y-91494800D01*
X104050200Y-91494800D01*
X104050200Y-92147200D01*
X104050200Y-92147200D01*
G37*
G36*
X107098200Y-92147200D02*
X106345800Y-92147200D01*
X106345800Y-91494800D01*
X107098200Y-91494800D01*
X107098200Y-92147200D01*
X107098200Y-92147200D01*
G37*
G36*
X105998200Y-92147200D02*
X105245800Y-92147200D01*
X105245800Y-91494800D01*
X105998200Y-91494800D01*
X105998200Y-92147200D01*
X105998200Y-92147200D01*
G37*
G36*
X109711700Y-90643700D02*
X109109300Y-90643700D01*
X109109300Y-89891300D01*
X109711700Y-89891300D01*
X109711700Y-90643700D01*
X109711700Y-90643700D01*
G37*
G36*
X108134700Y-90407700D02*
X106532300Y-90407700D01*
X106532300Y-89805300D01*
X108134700Y-89805300D01*
X108134700Y-90407700D01*
X108134700Y-90407700D01*
G37*
G36*
X103734700Y-90407700D02*
X102132300Y-90407700D01*
X102132300Y-89805300D01*
X103734700Y-89805300D01*
X103734700Y-90407700D01*
X103734700Y-90407700D01*
G37*
G36*
X103734700Y-89757700D02*
X102132300Y-89757700D01*
X102132300Y-89155300D01*
X103734700Y-89155300D01*
X103734700Y-89757700D01*
X103734700Y-89757700D01*
G37*
G36*
X108134700Y-89757700D02*
X106532300Y-89757700D01*
X106532300Y-89155300D01*
X108134700Y-89155300D01*
X108134700Y-89757700D01*
X108134700Y-89757700D01*
G37*
G36*
X108134700Y-89107700D02*
X106532300Y-89107700D01*
X106532300Y-88505300D01*
X108134700Y-88505300D01*
X108134700Y-89107700D01*
X108134700Y-89107700D01*
G37*
G36*
X103734700Y-89107700D02*
X102132300Y-89107700D01*
X102132300Y-88505300D01*
X103734700Y-88505300D01*
X103734700Y-89107700D01*
X103734700Y-89107700D01*
G37*
G36*
X109711700Y-88543700D02*
X109109300Y-88543700D01*
X109109300Y-87791300D01*
X109711700Y-87791300D01*
X109711700Y-88543700D01*
X109711700Y-88543700D01*
G37*
G36*
X108134700Y-88457700D02*
X106532300Y-88457700D01*
X106532300Y-87855300D01*
X108134700Y-87855300D01*
X108134700Y-88457700D01*
X108134700Y-88457700D01*
G37*
G36*
X103734700Y-88457700D02*
X102132300Y-88457700D01*
X102132300Y-87855300D01*
X103734700Y-87855300D01*
X103734700Y-88457700D01*
X103734700Y-88457700D01*
G37*
G36*
X108792200Y-86813200D02*
X108039800Y-86813200D01*
X108039800Y-86160800D01*
X108792200Y-86160800D01*
X108792200Y-86813200D01*
X108792200Y-86813200D01*
G37*
G36*
X109892200Y-86813200D02*
X109139800Y-86813200D01*
X109139800Y-86160800D01*
X109892200Y-86160800D01*
X109892200Y-86813200D01*
X109892200Y-86813200D01*
G37*
G36*
X103077200Y-86813200D02*
X102324800Y-86813200D01*
X102324800Y-86160800D01*
X103077200Y-86160800D01*
X103077200Y-86813200D01*
X103077200Y-86813200D01*
G37*
G36*
X104177200Y-86813200D02*
X103424800Y-86813200D01*
X103424800Y-86160800D01*
X104177200Y-86160800D01*
X104177200Y-86813200D01*
X104177200Y-86813200D01*
G37*
G36*
X105998200Y-86813200D02*
X105245800Y-86813200D01*
X105245800Y-86160800D01*
X105998200Y-86160800D01*
X105998200Y-86813200D01*
X105998200Y-86813200D01*
G37*
G36*
X107098200Y-86813200D02*
X106345800Y-86813200D01*
X106345800Y-86160800D01*
X107098200Y-86160800D01*
X107098200Y-86813200D01*
X107098200Y-86813200D01*
G37*
G36*
X106239917Y-83465993D02*
X106333104Y-83475787D01*
X106482477Y-83522026D01*
X106620025Y-83596398D01*
X106740508Y-83696070D01*
X106839336Y-83817246D01*
X106912746Y-83955309D01*
X106957941Y-84105002D01*
X106973200Y-84260623D01*
X106973200Y-84268377D01*
X106973122Y-84279563D01*
X106955692Y-84434956D01*
X106908411Y-84584003D01*
X106833081Y-84721029D01*
X106732570Y-84840813D01*
X106610708Y-84938793D01*
X106472135Y-85011237D01*
X106322130Y-85055386D01*
X106322122Y-85055387D01*
X106322121Y-85055387D01*
X106260043Y-85061036D01*
X106166407Y-85069557D01*
X106166404Y-85069557D01*
X106104083Y-85063007D01*
X106010896Y-85053213D01*
X105861523Y-85006974D01*
X105723975Y-84932602D01*
X105603492Y-84832930D01*
X105504664Y-84711754D01*
X105431254Y-84573691D01*
X105386059Y-84423998D01*
X105370800Y-84268377D01*
X105370800Y-84260623D01*
X105370878Y-84249437D01*
X105388308Y-84094044D01*
X105435589Y-83944997D01*
X105510919Y-83807971D01*
X105611430Y-83688187D01*
X105733292Y-83590207D01*
X105871865Y-83517763D01*
X106021870Y-83473614D01*
X106021878Y-83473613D01*
X106021879Y-83473613D01*
X106083957Y-83467964D01*
X106177594Y-83459443D01*
X106177596Y-83459443D01*
X106239917Y-83465993D01*
X106239917Y-83465993D01*
G37*
G36*
X103699917Y-83465993D02*
X103793104Y-83475787D01*
X103942477Y-83522026D01*
X104080025Y-83596398D01*
X104200508Y-83696070D01*
X104299336Y-83817246D01*
X104372746Y-83955309D01*
X104417941Y-84105002D01*
X104433200Y-84260623D01*
X104433200Y-84268377D01*
X104433122Y-84279563D01*
X104415692Y-84434956D01*
X104368411Y-84584003D01*
X104293081Y-84721029D01*
X104192570Y-84840813D01*
X104070708Y-84938793D01*
X103932135Y-85011237D01*
X103782130Y-85055386D01*
X103782122Y-85055387D01*
X103782121Y-85055387D01*
X103720043Y-85061036D01*
X103626407Y-85069557D01*
X103626404Y-85069557D01*
X103564083Y-85063007D01*
X103470896Y-85053213D01*
X103321523Y-85006974D01*
X103183975Y-84932602D01*
X103063492Y-84832930D01*
X102964664Y-84711754D01*
X102891254Y-84573691D01*
X102846059Y-84423998D01*
X102830800Y-84268377D01*
X102830800Y-84260623D01*
X102830878Y-84249437D01*
X102848308Y-84094044D01*
X102895589Y-83944997D01*
X102970919Y-83807971D01*
X103071430Y-83688187D01*
X103193292Y-83590207D01*
X103331865Y-83517763D01*
X103481870Y-83473614D01*
X103481878Y-83473613D01*
X103481879Y-83473613D01*
X103543957Y-83467964D01*
X103637594Y-83459443D01*
X103637596Y-83459443D01*
X103699917Y-83465993D01*
X103699917Y-83465993D01*
G37*
G36*
X109513200Y-85065700D02*
X107910800Y-85065700D01*
X107910800Y-83463300D01*
X109513200Y-83463300D01*
X109513200Y-85065700D01*
X109513200Y-85065700D01*
G37*
G36*
X109326715Y-78359677D02*
X109521893Y-78399741D01*
X109521896Y-78399742D01*
X109521895Y-78399742D01*
X109705572Y-78476953D01*
X109870756Y-78588370D01*
X109941450Y-78659560D01*
X110011153Y-78729751D01*
X110121415Y-78895709D01*
X110197343Y-79079923D01*
X110236044Y-79275376D01*
X110232866Y-79502955D01*
X110188723Y-79697251D01*
X110138790Y-79809400D01*
X110107682Y-79879272D01*
X110107681Y-79879273D01*
X109992828Y-80042088D01*
X109848539Y-80179493D01*
X109680308Y-80286255D01*
X109494545Y-80358308D01*
X109494542Y-80358308D01*
X109494541Y-80358309D01*
X109371777Y-80379955D01*
X109298324Y-80392907D01*
X109298323Y-80392907D01*
X109099122Y-80388735D01*
X109025572Y-80372564D01*
X108904520Y-80345949D01*
X108721936Y-80266180D01*
X108558324Y-80152467D01*
X108419915Y-80009140D01*
X108419914Y-80009139D01*
X108311980Y-79841658D01*
X108238632Y-79656402D01*
X108202664Y-79460431D01*
X108202664Y-79460428D01*
X108205446Y-79261200D01*
X108243977Y-79079925D01*
X108246871Y-79066308D01*
X108325364Y-78883170D01*
X108437931Y-78718769D01*
X108580291Y-78579360D01*
X108747014Y-78470261D01*
X108931753Y-78395621D01*
X109127472Y-78358286D01*
X109326715Y-78359677D01*
X109326715Y-78359677D01*
G37*
G36*
X102976715Y-78359677D02*
X103171893Y-78399741D01*
X103171896Y-78399742D01*
X103171895Y-78399742D01*
X103355572Y-78476953D01*
X103520756Y-78588370D01*
X103591450Y-78659560D01*
X103661153Y-78729751D01*
X103771415Y-78895709D01*
X103847343Y-79079923D01*
X103886044Y-79275376D01*
X103882866Y-79502955D01*
X103838723Y-79697251D01*
X103788790Y-79809400D01*
X103757682Y-79879272D01*
X103757681Y-79879273D01*
X103642828Y-80042088D01*
X103498539Y-80179493D01*
X103330308Y-80286255D01*
X103144545Y-80358308D01*
X103144542Y-80358308D01*
X103144541Y-80358309D01*
X103021777Y-80379955D01*
X102948324Y-80392907D01*
X102948323Y-80392907D01*
X102749122Y-80388735D01*
X102675572Y-80372564D01*
X102554520Y-80345949D01*
X102371936Y-80266180D01*
X102208324Y-80152467D01*
X102069915Y-80009140D01*
X102069914Y-80009139D01*
X101961980Y-79841658D01*
X101888632Y-79656402D01*
X101852664Y-79460431D01*
X101852664Y-79460428D01*
X101855446Y-79261200D01*
X101893977Y-79079925D01*
X101896871Y-79066308D01*
X101975364Y-78883170D01*
X102087931Y-78718769D01*
X102230291Y-78579360D01*
X102397014Y-78470261D01*
X102581753Y-78395621D01*
X102777472Y-78358286D01*
X102976715Y-78359677D01*
X102976715Y-78359677D01*
G37*
M02*
